<svg xmlns="http://www.w3.org/2000/svg" viewBox="0 0 1198.26 213.46"><title>st_logo_blue</title><text transform="translate(7.43 162.17)" style="font-size:185.21884155273438px;fill:#32a6cc;font-family:Londrina Solid;letter-spacing:5px">SMA<tspan x="294.86" y="0" style="letter-spacing:-1px">R</tspan><tspan x="398.4" y="0">T</tspan><tspan x="489.53" y="0" style="fill:#535263">TEXT</tspan></text><polyline points="1084.04 123.67 1198.26 0 951.3 0 1084.04 123.67" style="fill:#32a6cc"/><path d="M909.92,144.33s-30.52,32.69-34.06,35c-10,6.45-212.1,2.59-212.1,2.59L450.24,180,237,183.78s-211.93,2.47-214.49,3.56C15.71,190.25,0,207.17,2.94,209.47s223.45,1.44,223.45,1.44l223.35,0.18,224.42,1.44s213,1.6,223.83.63c8.17-.73,40.08-31,40.08-31Z" transform="translate(-2.58)" style="fill:#32a6cc"/><path d="M953.88,0c-5.4,3.86-9.65,14.66-9.26,23.15,8.49,53.64-16.06,91.08-47.65,131-3.89,4.92,30.28,39.09,37,34.35,39.77-27.83,76.16-58.72,130.26-54,8.5-.21,19-5.2,22.45-10.85Z" transform="translate(-2.58)" style="fill:#535263"/></svg>