<svg xmlns="http://www.w3.org/2000/svg" viewBox="0 0 1200.84 219.84"><title>st_logo</title><text transform="translate(0 159.47)" style="font-size:185.21884155273438px;fill:#ede94c;font-family:Londrina Solid;letter-spacing:5px">SMA<tspan x="294.86" y="0" style="letter-spacing:-1px">R</tspan><tspan x="398.4" y="0">T</tspan><tspan x="489.53" y="0" style="fill:#535263">TEXT</tspan></text><polygon points="22.64 191.76 449.16 187.89 896.92 188.01 896.97 218.64 449.16 219.84 1.43 217.99 22.64 191.76" style="fill:#ede94c"/><polyline points="1086.62 128.98 1200.84 5.31 953.88 5.31 1086.62 128.98" style="fill:#ede94c"/><polygon points="896.97 218.64 936.9 187.44 908.61 152.46 875.16 189.06 896.97 218.64" style="fill:#ede94c"/><path d="M953.88,429.83c-5.4,3.86-9.65,14.66-9.26,23.15,8.49,53.64-13.89,95.31-47.65,131l39.93,37c34-34.92,73.27-61.4,127.37-56.68,8.5-.21,19-5.2,22.45-10.85Z" transform="translate(0 -424.52)" style="fill:#535263"/></svg>